<svg xmlns="http://www.w3.org/2000/svg" width="39.217" height="36.289" viewBox="0 0 39.217 36.289"><defs><style>.a{fill:#333;}</style></defs><g transform="translate(12.995 29.391)"><path class="a" d="M173.105,402.828a3.449,3.449,0,1,0,3.449,3.449A3.453,3.453,0,0,0,173.105,402.828Zm0,4.972a1.523,1.523,0,1,1,1.523-1.523A1.525,1.525,0,0,1,173.105,407.8Z" transform="translate(-169.656 -402.828)"/></g><g transform="translate(25.093 29.391)"><path class="a" d="M331.05,402.828a3.449,3.449,0,1,0,3.449,3.449A3.453,3.453,0,0,0,331.05,402.828Zm0,4.972a1.523,1.523,0,1,1,1.523-1.523A1.525,1.525,0,0,1,331.05,407.8Z" transform="translate(-327.601 -402.828)"/></g><g transform="translate(14.63 11.232)"><path class="a" d="M205.758,165.755h-13.8a.963.963,0,0,0,0,1.926h13.8a.963.963,0,1,0,0-1.926Z" transform="translate(-190.996 -165.755)"/></g><g transform="translate(15.381 16.232)"><g transform="translate(0 0)"><path class="a" d="M214.061,231.035h-12.3a.963.963,0,0,0,0,1.926h12.3a.963.963,0,0,0,0-1.926Z" transform="translate(-200.802 -231.035)"/></g></g><g transform="translate(0 0)"><g transform="translate(0 0)"><path class="a" d="M38.783,26.056a1.918,1.918,0,0,0-1.493-.709H7.3l-.606-2.94a1.928,1.928,0,0,0-1.119-1.378L1.346,19.194A.963.963,0,0,0,.579,20.96l4.226,1.835L9.465,45.411a1.933,1.933,0,0,0,1.886,1.537H34.419a.963.963,0,0,0,0-1.926H11.351l-.567-2.751H34.6a1.933,1.933,0,0,0,1.886-1.537l2.693-13.073A1.918,1.918,0,0,0,38.783,26.056ZM34.6,40.345H10.387L7.694,27.272h29.6Z" transform="translate(0 -19.114)"/></g></g></svg>