<svg xmlns="http://www.w3.org/2000/svg" width="43.552" height="29.206" viewBox="0 0 43.552 29.206"><defs><style>.a,.b{isolation:isolate;}.b{mix-blend-mode:multiply;}.c{fill:#333;}</style></defs><g class="a"><g transform="translate(0)"><g class="b"><path class="c" d="M40.469,29.206H4.264A3.687,3.687,0,0,1,.59,25.5V3.7A3.687,3.687,0,0,1,4.264,0H40.469a3.689,3.689,0,0,1,3.674,3.7V25.511a3.689,3.689,0,0,1-3.674,3.7ZM4.264,1.217A2.474,2.474,0,0,0,1.8,3.7V25.511a2.476,2.476,0,0,0,2.465,2.478H40.469a2.474,2.474,0,0,0,2.456-2.478V3.7a2.472,2.472,0,0,0-2.456-2.485Z" transform="translate(-0.59)"/></g><rect class="c" width="42.342" height="4.867" transform="translate(0 7.302)"/><path class="c" d="M37.3,85.037H17.941a.61.61,0,0,1,0-1.217H37.3a.61.61,0,0,1,0,1.217Z" transform="translate(-13.714 -65.567)"/><path class="c" d="M45.773,65.477H17.941a.61.61,0,0,1,0-1.217H45.773a.61.61,0,0,1,0,1.217Z" transform="translate(-13.714 -50.267)"/></g></g></svg>