<svg id="Grupo_156" data-name="Grupo 156" xmlns="http://www.w3.org/2000/svg" width="38.637" height="33.779" viewBox="0 0 38.637 33.779">
  <path id="Trazado_452" data-name="Trazado 452" d="M2756.346,4860.549a.786.786,0,0,0,.636-.015l6.281-2.854a.807.807,0,0,0,.378-1.078.792.792,0,0,0-1.038-.386l-4.4,2a15.534,15.534,0,0,1,29.678.98.8.8,0,0,0,1.554-.409,17.151,17.151,0,0,0-32.768-1.1l-1.849-4.622a.8.8,0,0,0-1.529.5.564.564,0,0,0,.041.1l2.565,6.433a.788.788,0,0,0,.451.45Zm0,0" transform="translate(-2753.25 -4846.13)" fill="#333"/>
  <path id="Trazado_453" data-name="Trazado 453" d="M2791.5,4869.729a.1.1,0,0,1-.016-.049l-2.566-6.433a.807.807,0,0,0-.449-.452.837.837,0,0,0-.636.019l-6.282,2.853a.806.806,0,1,0,.619,1.489c.016-.007.033-.017.049-.023l4.4-2a15.544,15.544,0,0,1-29.694-.981.8.8,0,1,0-1.55.41,17.149,17.149,0,0,0,32.766,1.094l1.849,4.625a.8.8,0,0,0,1.513-.547Zm0,0" transform="translate(-2752.911 -4843.438)" fill="#333"/>
</svg>
