<svg xmlns="http://www.w3.org/2000/svg" width="46.939" height="29.714" viewBox="0 0 46.939 29.714"><defs><style>.a{fill:#333;}</style></defs><path class="a" d="M46.339,13.715a3.237,3.237,0,0,0-1.918-1.1l-.357-4.867a.737.737,0,0,0,.717-.609l.137-.784a2.779,2.779,0,0,0-.566-2.278,2.682,2.682,0,0,0-2.1-.932H36.865l.263-1.491a1.417,1.417,0,0,0-.3-1.159A1.393,1.393,0,0,0,35.748,0H9.171A1.716,1.716,0,0,0,7.525,1.392L5.173,14.728a.732.732,0,0,0,.6.851.651.651,0,0,0,.13,0,.737.737,0,0,0,.723-.606L8.974,1.646a.245.245,0,0,1,.2-.175H35.656L33.318,14.723a.736.736,0,1,0,1.449.256l.171-.961h8.8a1.889,1.889,0,0,1,1.48.638,1.842,1.842,0,0,1,.409,1.029H43.181a.737.737,0,0,0-.726.606l-.276,1.572a2.089,2.089,0,0,0,.431,1.718A2.058,2.058,0,0,0,44.2,20.3h.692l-.571,3.235H42.377a3.866,3.866,0,0,0-.833-1.743,3.976,3.976,0,0,0-3.115-1.39,5.649,5.649,0,0,0-4.872,3.145h-.3l.955-5.411a.736.736,0,1,0-1.449-.256l-1,5.667H18.152a3.861,3.861,0,0,0-.831-1.754A3.983,3.983,0,0,0,14.2,20.4,5.652,5.652,0,0,0,9.331,23.54H5.112l.294-1.667H8.713a.737.737,0,0,0,0-1.471H.867a.737.737,0,0,0,0,1.471H3.913L3.65,23.36a1.417,1.417,0,0,0,.3,1.157A1.4,1.4,0,0,0,5.027,25H8.855A4.063,4.063,0,0,0,9.7,28.322a3.983,3.983,0,0,0,3.118,1.39,5.64,5.64,0,0,0,5.337-4.531A1.535,1.535,0,0,1,18.185,25H33.077a4.066,4.066,0,0,0,.851,3.318,3.976,3.976,0,0,0,3.115,1.388,5.64,5.64,0,0,0,5.339-4.528L42.41,25h2.525a.732.732,0,0,0,.723-.609l1.384-7.844A3.405,3.405,0,0,0,46.339,13.715ZM35.2,12.551l.847-4.8h6.543l.355,4.8ZM43.471,6.1l-.031.177H36.3l.294-1.667h5.658a1.231,1.231,0,0,1,.968.413A1.3,1.3,0,0,1,43.471,6.1ZM16.709,24.932a4.124,4.124,0,0,1-3.888,3.315,2.536,2.536,0,0,1-1.99-.865,2.633,2.633,0,0,1-.517-2.195,4.124,4.124,0,0,1,3.89-3.315,2.534,2.534,0,0,1,1.988.865A2.633,2.633,0,0,1,16.709,24.932Zm24.225,0a4.126,4.126,0,0,1-3.89,3.315,2.538,2.538,0,0,1-1.99-.865,2.642,2.642,0,0,1-.517-2.195,4.128,4.128,0,0,1,3.89-3.315,2.536,2.536,0,0,1,1.99.865,2.642,2.642,0,0,1,.517,2.195Zm4.214-6.1H44.2a.571.571,0,0,1-.449-.189.622.622,0,0,1-.11-.517l.168-.961H45.45Z" transform="translate(-0.171 0.001)"/><path class="a" d="M55.525,105.309a1.4,1.4,0,0,0-1.074-.49,1.718,1.718,0,0,0-1.646,1.393,1.413,1.413,0,0,0,.3,1.159,1.4,1.4,0,0,0,1.076.478,1.718,1.718,0,0,0,1.646-1.393,1.406,1.406,0,0,0-.3-1.148Z" transform="translate(-40.963 -81.275)"/><path class="a" d="M163.328,105.309a1.4,1.4,0,0,0-1.074-.49,1.723,1.723,0,0,0-1.649,1.393,1.413,1.413,0,0,0,.3,1.159,1.4,1.4,0,0,0,1.074.49,1.723,1.723,0,0,0,1.649-1.393A1.413,1.413,0,0,0,163.328,105.309Z" transform="translate(-124.55 -81.275)"/><path class="a" d="M97.5,90.8H88.177a.737.737,0,0,0,0,1.471H97.5a.737.737,0,1,0,0-1.471Z" transform="translate(-67.87 -70.401)"/><path class="a" d="M23.884,76.826H10.317a.737.737,0,0,0,0,1.471H23.884a.737.737,0,1,0,0-1.471Z" transform="translate(-7.498 -59.568)"/><path class="a" d="M60.408,54.918l-2.722-2.354a.74.74,0,0,0-.964,1.123l1.229,1.06H39.307a.737.737,0,0,0,0,1.471H57.5l-1.518,1.006a.735.735,0,0,0,.407,1.348.753.753,0,0,0,.407-.121L60.349,56.1a.739.739,0,0,0,.074-1.17Z" transform="translate(-29.977 -40.619)"/></svg>